<svg xmlns="http://www.w3.org/2000/svg" viewBox="0 0 200 200">
<title>Blue</title>
<path transform="translate(100,100) scale(0.2112676056338028,-0.2112676056338028) translate(-368.5,-355.0)" fill="#4D9FFF" d="M62 0V710H360Q496 710 570.5 663.5Q645 617 645 516Q645 386 498 368V366Q587 357 631.0 313.5Q675 270 675 196Q675 96 601.0 48.0Q527 0 390 0ZM258 425H352Q394 425 421.5 441.5Q449 458 449 492Q449 528 422.0 544.0Q395 560 352 560H258ZM258 150H377Q420 150 449.5 167.5Q479 185 479 223Q479 261 450.0 279.0Q421 297 377 297H258Z"/>
</svg>
